<?xml version="1.0" encoding="UTF-8"?>
<svg id="Capa_2" data-name="Capa 2" xmlns="http://www.w3.org/2000/svg" viewBox="0 0 300 300">
  <defs>
    <style>
      .cls-1 {
        fill: #fff;
      }

      .cls-2 {
        fill: #010101;
      }
    </style>
  </defs>
  <g id="Capa_1-2" data-name="Capa 1">
    <g>
      <circle class="cls-2" cx="150" cy="150" r="150"/>
      <path class="cls-1" d="M241.44,66.62h-60.96c-12.84.01-24.6,7.19-30.48,18.61-5.88-11.42-17.64-18.6-30.48-18.61h-60.96c-6.31,0-11.42,5.12-11.43,11.43v121.92c0,6.31,5.12,11.42,11.43,11.43h60.96c14.72.02,26.65,11.95,26.67,26.67,0,2.1,1.71,3.81,3.81,3.81s3.81-1.71,3.81-3.81c.02-14.72,11.95-26.65,26.67-26.67h60.96c6.31,0,11.42-5.12,11.43-11.43v-121.92c0-6.31-5.12-11.42-11.43-11.43ZM119.52,203.78h-60.96c-2.1,0-3.81-1.71-3.81-3.81v-121.92c0-2.1,1.71-3.81,3.81-3.81h60.96c14.72.02,26.65,11.95,26.67,26.67v115.63c-6.5-8.07-16.31-12.76-26.67-12.76ZM245.25,199.97c0,2.1-1.71,3.81-3.81,3.81h-60.96c-10.36,0-20.17,4.7-26.67,12.77v-115.64c.02-14.72,11.95-26.65,26.67-26.67h60.96c2.1,0,3.81,1.71,3.81,3.81v121.92Z"/>
    </g>
  </g>
</svg>